<svg xmlns="http://www.w3.org/2000/svg" width="230" height="55.893" viewBox="0 0 230 55.893"><g transform="translate(-90 -77)"><g transform="translate(-113.889 42.236)"><g transform="translate(203.889 34.764)"><path d="M264.417,56.12v2.929h.072a6.059,6.059,0,0,1,5.3-3.254q3.815,0,5.369,4,2.347-4,5.776-4a5.236,5.236,0,0,1,4.17,1.844,7.243,7.243,0,0,1,1.588,4.9V72.752h-1.772V63.315a7.03,7.03,0,0,0-1.136-4.24,3.736,3.736,0,0,0-3.2-1.546,4.1,4.1,0,0,0-2.669.922,11.1,11.1,0,0,0-2.346,2.965V72.752h-1.79V63.279a6.707,6.707,0,0,0-1.185-4.258,3.844,3.844,0,0,0-3.172-1.491q-2.894,0-5.008,3.561V72.752h-1.772V56.12Z" transform="translate(-215.125 -39.069)"/><path d="M311.434,63.821H298.327a7,7,0,0,0-.054.869,6.327,6.327,0,0,0,1.989,4.718,6.515,6.515,0,0,0,4.7,1.936,9.687,9.687,0,0,0,6.183-2.478v2.007a10.209,10.209,0,0,1-6.4,2.206,7.823,7.823,0,0,1-5.948-2.5,8.891,8.891,0,0,1-2.349-6.347,8.669,8.669,0,0,1,2.169-6.048,7.408,7.408,0,0,1,10.684-.234,7.983,7.983,0,0,1,2.134,5.866m-12.872-1.428h10.775q-.94-4.863-5.26-4.863a5.271,5.271,0,0,0-3.536,1.273,6.247,6.247,0,0,0-1.979,3.589" transform="translate(-221.536 -39.077)"/><path d="M321.6,49.487V55h4.664v1.446H321.6v9.89a8.045,8.045,0,0,0,.389,3.137q.389.75,2.088.75a7.347,7.347,0,0,0,3.038-.814v1.7a7.844,7.844,0,0,1-3.435.85,4.09,4.09,0,0,1-2.748-.94,3.234,3.234,0,0,1-1.1-2.6V56.447h-4.484V55h4.484V51.042l1.212-1.555Z" transform="translate(-225.118 -37.888)"/><path d="M344.674,57.765l-1.031,1.663q-2.079-1.9-3.345-1.9-2.494,0-5.333,4.774v10.45h-1.771V56.119h1.771v4.376h.072q2.984-4.7,5.822-4.7,1.628,0,3.815,1.97" transform="translate(-228.515 -39.07)"/><path d="M356.287,55.795a8.071,8.071,0,0,1,6.03,2.477,9.092,9.092,0,0,1,0,12.339,8.624,8.624,0,0,1-12.077,0,9.043,9.043,0,0,1,0-12.339,8.128,8.128,0,0,1,6.047-2.477m0,15.548a6.216,6.216,0,0,0,4.682-1.962,7.391,7.391,0,0,0-.009-9.862,6.185,6.185,0,0,0-4.673-1.989,6.259,6.259,0,0,0-4.71,1.97,7.405,7.405,0,0,0,0,9.881,6.267,6.267,0,0,0,4.71,1.962" transform="translate(-231.346 -39.077)"/><rect width="3.29" height="24.399" transform="translate(137.174 9.002)"/><path d="M390.765,56.145a8.676,8.676,0,0,1,6.309,2.45,8.242,8.242,0,0,1,2.514,6.157,7.826,7.826,0,0,1-2.549,5.976A9.044,9.044,0,0,1,390.62,73.1a8.672,8.672,0,0,1-6.256-2.414,8.525,8.525,0,0,1,.027-12.114,8.857,8.857,0,0,1,6.374-2.432m-.182,2.966a5.2,5.2,0,0,0-3.886,1.555,5.432,5.432,0,0,0-1.519,3.96,5.192,5.192,0,0,0,1.554,3.9,5.5,5.5,0,0,0,4,1.51A5.4,5.4,0,0,0,394.7,68.5a5.653,5.653,0,0,0-.063-7.838,5.592,5.592,0,0,0-4.05-1.555" transform="translate(-237.85 -39.141)"/><path d="M406.241,61.939a5.08,5.08,0,0,1,1.944-4.2,8.3,8.3,0,0,1,5.306-1.546h6.852v2.567h-3.363a6.9,6.9,0,0,1,1.356,1.807,4.366,4.366,0,0,1,.379,1.862,4.978,4.978,0,0,1-.74,2.558,5.236,5.236,0,0,1-1.907,1.926,11.653,11.653,0,0,1-3.824,1.066q-1.863.271-1.862,1.284a1.089,1.089,0,0,0,.7.949,10.928,10.928,0,0,0,2.521.768,27.513,27.513,0,0,1,3.933,1.048,5.114,5.114,0,0,1,1.582,1.085,4.069,4.069,0,0,1,1.192,3,4.344,4.344,0,0,1-2.106,3.778,9.976,9.976,0,0,1-5.632,1.41,10.09,10.09,0,0,1-5.685-1.419,4.372,4.372,0,0,1-2.125-3.806q0-3.38,4.176-4.357-1.665-1.067-1.664-2.116a1.928,1.928,0,0,1,.715-1.446,4.409,4.409,0,0,1,1.925-.958,5.463,5.463,0,0,1-3.67-5.261M411.647,73.6a4.815,4.815,0,0,0-2.72.706,2.107,2.107,0,0,0-1.059,1.808q0,2.567,4.629,2.567a7.307,7.307,0,0,0,3.39-.642,1.988,1.988,0,0,0,1.2-1.816q0-1.159-1.519-1.89a9.069,9.069,0,0,0-3.924-.733m.777-14.554a3.165,3.165,0,0,0-2.277.9,2.9,2.9,0,0,0-.941,2.17,2.751,2.751,0,0,0,.922,2.124,3.328,3.328,0,0,0,2.333.841,3.294,3.294,0,0,0,2.322-.859,2.8,2.8,0,0,0,.931-2.143,2.832,2.832,0,0,0-.939-2.169,3.335,3.335,0,0,0-2.351-.868" transform="translate(-242.195 -39.422)"/><path d="M429.026,47.684a1.932,1.932,0,0,1,1.393.561A1.838,1.838,0,0,1,431,49.619a1.874,1.874,0,0,1-.578,1.374,1.9,1.9,0,0,1-1.393.579,1.821,1.821,0,0,1-1.338-.587,1.887,1.887,0,0,1-.578-1.366,1.866,1.866,0,0,1,.578-1.347,1.822,1.822,0,0,1,1.338-.588m-1.626,7h3.29V71.315H427.4Z" transform="translate(-246.305 -37.532)"/><path d="M448.946,68.865V72.12a13.846,13.846,0,0,1-4.845.923,7.987,7.987,0,0,1-8.552-8.517A8.858,8.858,0,0,1,437.81,58.2a7.785,7.785,0,0,1,5.948-2.4,9.943,9.943,0,0,1,2.3.244,15.217,15.217,0,0,1,2.522.912v3.508a8.746,8.746,0,0,0-4.629-1.59,4.725,4.725,0,0,0-3.652,1.564,5.681,5.681,0,0,0-1.429,3.986,5.38,5.38,0,0,0,1.547,4.051,5.726,5.726,0,0,0,4.167,1.5,10.867,10.867,0,0,0,4.357-1.1" transform="translate(-248.51 -39.076)"/><path d="M467.375,62.755v7.07q0,.849.578.849a3.989,3.989,0,0,0,1.862-.885V71.8a10.74,10.74,0,0,1-1.8.986,3.925,3.925,0,0,1-1.418.262q-2.116,0-2.5-1.663a7.157,7.157,0,0,1-4.464,1.627,3.938,3.938,0,0,1-2.893-1.148,3.9,3.9,0,0,1-1.157-2.884,4.054,4.054,0,0,1,1.129-2.811,7.629,7.629,0,0,1,3.209-1.962l4.213-1.446v-.886a2.653,2.653,0,0,0-3-3q-2.694,0-5.243,2.785v-3.6a6.826,6.826,0,0,1,5.513-2.259,6.363,6.363,0,0,1,4.322,1.41,4.435,4.435,0,0,1,.976,1.2,4.343,4.343,0,0,1,.552,1.5,22.4,22.4,0,0,1,.118,2.848m-3.236,6.707V64.526l-2.207.85a7.479,7.479,0,0,0-2.377,1.347,2.437,2.437,0,0,0-.035,3.372,2.332,2.332,0,0,0,1.709.651,4.136,4.136,0,0,0,2.91-1.284" transform="translate(-252.064 -39.076)"/><rect width="3.291" height="24.399" transform="translate(220.265 9.002)"/><path d="M482.623,47.824a2.126,2.126,0,1,1,.623,1.5,2.043,2.043,0,0,1-.623-1.5m3.97,0a1.859,1.859,0,1,0-.545,1.307,1.785,1.785,0,0,0,.545-1.307m-2.7-1.089h.921a.879.879,0,0,1,.554.156.522.522,0,0,1,.2.434c0,.341-.2.549-.608.619a1.156,1.156,0,0,1,.345.294,4.8,4.8,0,0,1,.349.723h-.336a3.1,3.1,0,0,0-.468-.814.787.787,0,0,0-.555-.164h-.13v.978h-.272Zm.272,1.025h.368a1.2,1.2,0,0,0,.548-.091.338.338,0,0,0,.161-.322.323.323,0,0,0-.147-.308,1.157,1.157,0,0,0-.521-.083h-.41Z" transform="translate(-256.86 -36.905)"/><path d="M230.179,34.764,224.5,40.44l-5.677-5.677-2.151,2.151,7.828,7.828,7.828-7.828Z" transform="translate(-206.157 -34.764)"/><path d="M222.235,77.377a114.966,114.966,0,0,1-11.577-.591,7.482,7.482,0,0,1-6.184-5.791l-.009-.057a58,58,0,0,1,0-16.32l.009-.057a7.273,7.273,0,0,1,6.254-5.8,113.3,113.3,0,0,1,11.507-.584,115.23,115.23,0,0,1,11.577.591A7.482,7.482,0,0,1,240,54.561l.009.057a58.064,58.064,0,0,1,0,16.32l-.009.057a7.475,7.475,0,0,1-6.153,5.788,115.086,115.086,0,0,1-11.607.595M208.16,70.394a3.793,3.793,0,0,0,2.906,2.679,111.016,111.016,0,0,0,11.169.57,111.353,111.353,0,0,0,11.2-.573,3.793,3.793,0,0,0,2.876-2.677,54.427,54.427,0,0,0,0-15.233,3.8,3.8,0,0,0-2.907-2.68,109.834,109.834,0,0,0-22.368,0,3.793,3.793,0,0,0-2.875,2.677,54.427,54.427,0,0,0,0,15.233" transform="translate(-203.889 -38.001)"/></g><g transform="translate(250.641 83.013)"><path d="M264.036,101.753a.534.534,0,0,1-.53.339.524.524,0,0,1-.592-.55.675.675,0,0,1,.053-.254l2.816-6.468a.588.588,0,0,1,.561-.359.578.578,0,0,1,.561.359l3.155,7.231h-1.333l-.985-2.255h-2.848Zm3.229-3.059-.943-2.181-.953,2.181Z" transform="translate(-262.914 -94.46)"/><path d="M284.616,96.513a1.311,1.311,0,0,1-.678-.349,2.522,2.522,0,0,0-1.461-.455,2.572,2.572,0,1,0,0,5.144,2.614,2.614,0,0,0,1.969-.91l.889.868a3.786,3.786,0,0,1-2.859,1.292,3.821,3.821,0,1,1,2.5-6.711.64.64,0,0,1,.254.475A.592.592,0,0,1,284.616,96.513Z" transform="translate(-265.706 -94.46)"/><path d="M297.01,98.282a3.816,3.816,0,1,1-3.821-3.822A3.826,3.826,0,0,1,297.01,98.282Zm-1.249,0a2.567,2.567,0,1,0-2.572,2.562A2.575,2.575,0,0,0,295.762,98.282Z" transform="translate(-267.608 -94.46)"/><path d="M302.428,94.947A.556.556,0,0,1,303,94.46a.6.6,0,0,1,.593.359l1.927,4.817,1.937-4.817a.6.6,0,0,1,.592-.359.556.556,0,0,1,.572.487l1.313,7.1h-1.238l-.943-5.113-1.64,4.181a.611.611,0,0,1-1.176,0l-1.64-4.181-.868,4.689a.564.564,0,0,1-.572.477.582.582,0,0,1-.635-.582,1.511,1.511,0,0,1,.042-.254Z" transform="translate(-269.709 -94.46)"/><path d="M320.142,96.513a1.311,1.311,0,0,1-.678-.349A2.518,2.518,0,0,0,318,95.71a2.572,2.572,0,1,0,0,5.144,2.612,2.612,0,0,0,1.969-.91l.889.868A3.785,3.785,0,0,1,318,102.1a3.821,3.821,0,1,1,2.5-6.711.643.643,0,0,1,.254.475A.592.592,0,0,1,320.142,96.513Z" transform="translate(-272.008 -94.46)"/><path d="M325.8,101.753a.534.534,0,0,1-.529.339.524.524,0,0,1-.593-.55.676.676,0,0,1,.053-.254l2.815-6.468a.589.589,0,0,1,.561-.359.577.577,0,0,1,.561.359l3.155,7.231h-1.333L329.5,99.8h-2.848Zm3.229-3.059-.942-2.181-.953,2.181Z" transform="translate(-273.869 -94.46)"/><path d="M335.986,100.155a2.175,2.175,0,0,0,1.672.783,1.049,1.049,0,0,0,1.176-.942c0-.466-.286-.72-.847-.985-.169-.084-.826-.4-.985-.476-.888-.423-1.609-.962-1.609-2.043a2.137,2.137,0,0,1,2.34-2.033,3.763,3.763,0,0,1,1.683.37.669.669,0,0,1,.434.6.553.553,0,0,1-.561.572,1.255,1.255,0,0,1-.508-.149,2.4,2.4,0,0,0-1-.233c-.794,0-1.111.434-1.111.826s.2.656.689.889c0,0,.9.434,1.228.582,1.2.582,1.524,1.239,1.524,2.043,0,1.238-1.059,2.138-2.594,2.138a2.9,2.9,0,0,1-2.435-1.133Z" transform="translate(-275.716 -94.46)"/><path d="M348.691,95.117a.584.584,0,0,1-.634.593H346.7v6.351h-1.218V95.71H344.14a.6.6,0,1,1,0-1.186h3.917A.584.584,0,0,1,348.691,95.117Z" transform="translate(-277.207 -94.471)"/><path d="M363.214,96.513a1.308,1.308,0,0,1-.678-.349,2.52,2.52,0,0,0-1.461-.455,2.572,2.572,0,1,0,0,5.144,2.613,2.613,0,0,0,1.969-.91l.889.868a3.788,3.788,0,0,1-2.859,1.292,3.821,3.821,0,1,1,2.5-6.711.64.64,0,0,1,.254.475A.592.592,0,0,1,363.214,96.513Z" transform="translate(-279.648 -94.46)"/><path d="M375.608,98.282a3.816,3.816,0,1,1-3.821-3.822A3.827,3.827,0,0,1,375.608,98.282Zm-1.249,0a2.567,2.567,0,1,0-2.572,2.562A2.575,2.575,0,0,0,374.36,98.282Z" transform="translate(-281.55 -94.46)"/><path d="M380.961,94.947a.557.557,0,0,1,.572-.487.6.6,0,0,1,.593.359l1.927,4.817,1.937-4.817a.6.6,0,0,1,.593-.359.556.556,0,0,1,.571.487l1.313,7.1h-1.239l-.942-5.113-1.641,4.181a.61.61,0,0,1-1.175,0l-1.64-4.181-.869,4.689a.563.563,0,0,1-.572.477.583.583,0,0,1-.635-.582,1.485,1.485,0,0,1,.043-.254Z" transform="translate(-283.639 -94.46)"/><path d="M396.2,99.32h-1.62v2.212a.609.609,0,0,1-1.217,0V95.106a.561.561,0,0,1,.582-.582H396.2c1.863,0,2.774,1.038,2.774,2.393C398.97,98.25,398.081,99.32,396.2,99.32Zm1.546-2.392c0-.7-.529-1.217-1.546-1.217h-1.62v2.424h1.62C397.16,98.134,397.742,97.657,397.742,96.928Z" transform="translate(-286.052 -94.471)"/><path d="M403.287,101.753a.536.536,0,0,1-.53.339.524.524,0,0,1-.593-.55.691.691,0,0,1,.053-.254l2.817-6.468a.587.587,0,0,1,.56-.359.579.579,0,0,1,.562.359l3.154,7.231h-1.333l-.985-2.255h-2.847Zm3.228-3.059-.942-2.181-.953,2.181Z" transform="translate(-287.614 -94.46)"/><path d="M414.416,94.905c.455.592,3.758,4.837,3.758,4.837V94.513h1.217v7a.573.573,0,0,1-.593.593c-.349,0-.487-.212-.688-.466-.783-1-3.737-4.785-3.737-4.785v4.658a.609.609,0,0,1-1.217,0V95.042a.573.573,0,0,1,.6-.582C414.045,94.46,414.205,94.64,414.416,94.905Z" transform="translate(-289.564 -94.46)"/><path d="M429.913,95.021a.712.712,0,0,1-.105.35l-2.488,3.546v3.134h-1.207v-3.1l-2.477-3.536a.6.6,0,0,1,.508-.953.554.554,0,0,1,.487.254l2.107,3.006,2.106-3.017a.594.594,0,0,1,.477-.243A.571.571,0,0,1,429.913,95.021Z" transform="translate(-291.402 -94.46)"/></g></g></g></svg>